<?xml version="1.0" encoding="UTF-8"?>
<!DOCTYPE svg PUBLIC "-//W3C//DTD SVG 1.1//EN" "http://www.w3.org/Graphics/SVG/1.1/DTD/svg11.dtd">
<svg xmlns="http://www.w3.org/2000/svg" version="1.1" width="308px" height="400px" style="shape-rendering:geometricPrecision; text-rendering:geometricPrecision; image-rendering:optimizeQuality; fill-rule:evenodd; clip-rule:evenodd" xmlns:xlink="http://www.w3.org/1999/xlink">
<g><path style="opacity:0.004" fill="#000000" d="M 76.5,26.5 C 76.8966,25.475 77.5632,25.3083 78.5,26C 77.9056,26.4643 77.2389,26.631 76.5,26.5 Z"/></g>
<g><path style="opacity:0.969" fill="#030302" d="M 92.5,34.5 C 92.5,35.1667 92.8333,35.5 93.5,35.5C 100.355,41.5942 108.355,45.5942 117.5,47.5C 118.263,48.2679 119.263,48.7679 120.5,49C 125.167,49.1667 129.833,49.3333 134.5,49.5C 144.118,49.8012 153.452,48.8012 162.5,46.5C 167.694,46.2593 172.694,45.5926 177.5,44.5C 180.713,44.81 183.713,44.4767 186.5,43.5C 192.833,43.5 199.167,43.5 205.5,43.5C 209.267,44.7947 213.267,45.4613 217.5,45.5C 224.314,47.5659 230.981,50.2326 237.5,53.5C 237.5,54.1667 237.833,54.5 238.5,54.5C 239.29,55.4013 240.29,56.0679 241.5,56.5C 241.5,57.1667 241.833,57.5 242.5,57.5C 248.694,62.8853 253.694,69.2186 257.5,76.5C 257.328,77.4916 257.662,78.1583 258.5,78.5C 258.263,79.791 258.596,80.791 259.5,81.5C 259.263,82.791 259.596,83.791 260.5,84.5C 260.565,87.4282 261.232,90.0948 262.5,92.5C 262.441,98.1603 263.441,103.494 265.5,108.5C 265.5,108.833 265.5,109.167 265.5,109.5C 264.833,109.5 264.5,109.833 264.5,110.5C 263.662,110.842 263.328,111.508 263.5,112.5C 261.61,117.709 258.443,118.709 254,115.5C 254.988,73.9881 234.821,53.6548 193.5,54.5C 176.741,55.0156 160.074,56.5156 143.5,59C 129.392,60.7394 115.725,59.0727 102.5,54C 94.0103,48.9949 85.677,43.8282 77.5,38.5C 76.5581,38.6082 75.7247,38.9415 75,39.5C 74.9108,48.2421 74.2441,56.9088 73,65.5C 71.8829,67.1243 70.3829,68.1243 68.5,68.5C 61.4141,64.6009 56.7475,66.4342 54.5,74C 55.2411,76.8062 56.2411,79.4729 57.5,82C 57.3552,83.2259 57.0219,84.3926 56.5,85.5C 53.3217,86.9815 49.9884,88.1481 46.5,89C 41.9396,95.0811 42.7729,100.248 49,104.5C 50.498,111.503 47.6647,114.503 40.5,113.5C 40.3398,115.199 40.5065,116.866 41,118.5C 48.7642,127.465 58.5976,132.299 70.5,133C 78.2026,133.642 85.8693,133.309 93.5,132C 108.174,128.664 122.84,125.33 137.5,122C 147.833,121.333 158.167,121.333 168.5,122C 175.521,123.34 182.188,125.674 188.5,129C 189.696,129.654 189.696,130.154 188.5,130.5C 176.048,125.218 163.381,124.218 150.5,127.5C 129.067,132.525 107.733,137.858 86.5,143.5C 94.3272,160.063 94.4939,176.73 87,193.5C 81.0023,202.661 77.5023,212.661 76.5,223.5C 72.6376,226.491 69.1376,226.158 66,222.5C 63.266,213.864 64.5993,205.864 70,198.5C 75.0637,191.097 79.7304,183.43 84,175.5C 87.4761,164.586 87.3094,153.753 83.5,143C 74.051,142.981 64.7177,142.148 55.5,140.5C 47.9204,167.834 47.587,195.167 54.5,222.5C 62.464,224.464 67.464,229.464 69.5,237.5C 63.2168,229.909 55.2168,227.409 45.5,230C 32.039,239.821 31.039,250.821 42.5,263C 46.0838,265.041 49.5838,267.208 53,269.5C 53.6667,270.833 54.3333,272.167 55,273.5C 55.3333,278.5 55.6667,283.5 56,288.5C 56.6891,289.357 57.5224,290.023 58.5,290.5C 61.3717,286.965 64.8717,285.965 69,287.5C 69.2574,281.804 69.7574,276.137 70.5,270.5C 69.1433,268.199 67.3099,266.199 65,264.5C 61.1667,256.667 55.3333,250.833 47.5,247C 51.5554,244.66 55.8887,243.993 60.5,245C 64.9475,246.39 68.9475,248.556 72.5,251.5C 73.1667,251.167 73.8333,250.833 74.5,250.5C 78.786,261.742 84.6193,272.075 92,281.5C 104.604,293.777 118.604,304.11 134,312.5C 146.842,286.393 168.009,271.893 197.5,269C 193.509,267.379 191.676,264.546 192,260.5C 193.263,258.203 195.097,257.37 197.5,258C 200.997,260.583 204.664,262.916 208.5,265C 217.667,266.5 221.5,262.667 220,253.5C 217.326,249.66 214.159,246.327 210.5,243.5C 218.164,240.741 223.664,243.408 227,251.5C 228.79,259.241 226.623,265.575 220.5,270.5C 238.501,275.753 251.001,287.086 258,304.5C 264.285,294.024 266.785,282.691 265.5,270.5C 263.998,246.481 262.165,222.481 260,198.5C 259.604,184.159 259.104,169.826 258.5,155.5C 258.134,147.106 258.467,140.773 259.5,136.5C 262.516,136.159 265.182,134.993 267.5,133C 271.743,127.959 276.076,123.125 280.5,118.5C 281.434,117.432 281.768,116.099 281.5,114.5C 281.833,114.5 282.167,114.5 282.5,114.5C 282.36,116.124 283.027,117.29 284.5,118C 282.258,119.007 282.592,119.841 285.5,120.5C 286.038,122.117 286.371,123.784 286.5,125.5C 285.662,125.842 285.328,126.508 285.5,127.5C 284.662,127.842 284.328,128.508 284.5,129.5C 283.833,129.5 283.5,129.833 283.5,130.5C 282.833,130.5 282.5,130.833 282.5,131.5C 281.833,131.5 281.5,131.833 281.5,132.5C 280.833,132.5 280.5,132.833 280.5,133.5C 277.515,134.326 274.849,135.659 272.5,137.5C 271.209,137.263 270.209,137.596 269.5,138.5C 266.833,138.5 264.167,138.5 261.5,138.5C 262.806,147.028 264.472,155.362 266.5,163.5C 266.205,165.735 266.539,167.735 267.5,169.5C 267.763,174.77 268.763,179.77 270.5,184.5C 270.43,188.425 271.097,192.091 272.5,195.5C 272.444,200.731 273.111,205.731 274.5,210.5C 276.449,230.02 278.782,249.353 281.5,268.5C 281.5,274.167 281.5,279.833 281.5,285.5C 280.539,287.265 280.205,289.265 280.5,291.5C 279.549,292.919 279.216,294.585 279.5,296.5C 278.662,296.842 278.328,297.508 278.5,298.5C 277.566,299.568 277.232,300.901 277.5,302.5C 276.662,302.842 276.328,303.508 276.5,304.5C 275.662,304.842 275.328,305.508 275.5,306.5C 274.662,306.842 274.328,307.508 274.5,308.5C 273.662,308.842 273.328,309.508 273.5,310.5C 272.662,310.842 272.328,311.508 272.5,312.5C 271.662,312.842 271.328,313.508 271.5,314.5C 270.662,314.842 270.328,315.508 270.5,316.5C 269.833,316.5 269.5,316.833 269.5,317.5C 268.662,317.842 268.328,318.508 268.5,319.5C 267.662,319.842 267.328,320.508 267.5,321.5C 266.833,321.5 266.5,321.833 266.5,322.5C 265.833,322.5 265.5,322.833 265.5,323.5C 264.662,323.842 264.328,324.508 264.5,325.5C 263.833,325.5 263.5,325.833 263.5,326.5C 262.662,326.842 262.328,327.508 262.5,328.5C 260.747,331.146 259.747,334.146 259.5,337.5C 257.648,340.551 256.314,343.884 255.5,347.5C 254.833,347.5 254.5,347.833 254.5,348.5C 253.662,348.842 253.328,349.508 253.5,350.5C 252.662,350.842 252.328,351.508 252.5,352.5C 251.833,352.5 251.5,352.833 251.5,353.5C 250.662,353.842 250.328,354.508 250.5,355.5C 249.833,355.5 249.5,355.833 249.5,356.5C 248.662,356.842 248.328,357.508 248.5,358.5C 247.833,358.5 247.5,358.833 247.5,359.5C 245.457,360.579 244.124,362.246 243.5,364.5C 242.833,364.5 242.5,364.833 242.5,365.5C 240.77,366.026 239.436,367.026 238.5,368.5C 237.833,368.5 237.5,368.833 237.5,369.5C 236.833,369.5 236.5,369.833 236.5,370.5C 235.508,370.328 234.842,370.662 234.5,371.5C 233.833,371.5 233.5,371.833 233.5,372.5C 232.508,372.328 231.842,372.662 231.5,373.5C 230.508,373.328 229.842,373.662 229.5,374.5C 228.508,374.328 227.842,374.662 227.5,375.5C 226.209,375.263 225.209,375.596 224.5,376.5C 222.901,376.232 221.568,376.566 220.5,377.5C 210.319,377.173 200.319,377.506 190.5,378.5C 186.167,378.5 181.833,378.5 177.5,378.5C 175.393,377.532 173.059,377.198 170.5,377.5C 169.791,376.596 168.791,376.263 167.5,376.5C 164.67,375.265 161.67,374.265 158.5,373.5C 157.486,372.326 156.153,371.66 154.5,371.5C 154.5,370.833 154.167,370.5 153.5,370.5C 145.681,365.885 137.348,362.218 128.5,359.5C 128.158,358.662 127.492,358.328 126.5,358.5C 126.158,357.662 125.492,357.328 124.5,357.5C 119.768,355.298 115.101,352.798 110.5,350C 104.94,344.369 99.2733,338.869 93.5,333.5C 93.5,332.833 93.1667,332.5 92.5,332.5C 92.5,331.833 92.1667,331.5 91.5,331.5C 89.1377,328.808 86.8044,326.141 84.5,323.5C 84.5,322.833 84.1667,322.5 83.5,322.5C 82.4884,321.128 81.4884,319.795 80.5,318.5C 80.5,317.833 80.1667,317.5 79.5,317.5C 75.9638,312.423 72.9638,307.09 70.5,301.5C 70.1667,300.167 69.8333,300.167 69.5,301.5C 68.8333,301.5 68.5,301.833 68.5,302.5C 67.5084,302.328 66.8417,302.662 66.5,303.5C 65.5084,303.328 64.8417,303.662 64.5,304.5C 62.901,304.232 61.5676,304.566 60.5,305.5C 59.5,305.5 58.5,305.5 57.5,305.5C 52.6574,304.659 48.6574,302.325 45.5,298.5C 45.5,297.833 45.1667,297.5 44.5,297.5C 43.7717,295.488 42.9383,293.488 42,291.5C 41.8255,286.649 41.3255,281.982 40.5,277.5C 37.8717,275.512 35.205,273.512 32.5,271.5C 32.5,270.833 32.1667,270.5 31.5,270.5C 31.5,269.833 31.1667,269.5 30.5,269.5C 21.3675,257.95 20.2008,245.616 27,232.5C 29.6903,228.31 33.1903,224.976 37.5,222.5C 33.5654,203.52 33.5654,184.52 37.5,165.5C 38.8699,162.381 39.8699,159.048 40.5,155.5C 41.3382,155.158 41.6716,154.492 41.5,153.5C 43.2031,149.767 45.2031,146.1 47.5,142.5C 46.9598,141.252 46.2931,140.085 45.5,139C 46.1667,138.667 46.8333,138.333 47.5,138C 46.255,137.209 44.9217,136.709 43.5,136.5C 40.1667,133.5 36.8333,130.5 33.5,127.5C 33.5,126.833 33.1667,126.5 32.5,126.5C 26.9083,118.958 27.2417,111.791 33.5,105C 29.6628,95.6451 31.3295,87.4785 38.5,80.5C 39.1667,80.5 39.5,80.1667 39.5,79.5C 40.7095,79.0679 41.7095,78.4013 42.5,77.5C 42.7393,71.7899 44.406,66.4566 47.5,61.5C 48.1667,61.5 48.5,61.1667 48.5,60.5C 53.1034,56.8409 58.4367,55.0076 64.5,55C 62.1667,54.6667 59.8333,54.3333 57.5,54C 58.7932,53.51 60.1266,53.3433 61.5,53.5C 61.6677,32.1771 62.1677,32.1771 63,53.5C 63.3333,48.1667 63.6667,42.8333 64,37.5C 67.0528,30.0576 72.5528,26.8909 80.5,28C 84.9748,29.4021 88.9748,31.5688 92.5,34.5 Z M 167.5,44.5 C 170.833,44.5 174.167,44.5 177.5,44.5C 172.694,45.5926 167.694,46.2593 162.5,46.5C 153.568,46.2122 144.568,46.2122 135.5,46.5C 135.5,46.1667 135.5,45.8333 135.5,45.5C 146.38,45.2267 157.047,44.8934 167.5,44.5 Z"/></g>
<g><path style="opacity:0.008" fill="#000000" d="M 92.5,34.5 C 93.4971,33.2875 94.4971,33.4542 95.5,35C 94.9056,35.4643 94.2389,35.631 93.5,35.5C 92.8333,35.5 92.5,35.1667 92.5,34.5 Z"/></g>
<g><path style="opacity:1" fill="#e9d9bc" d="M 263.5,112.5 C 264.338,112.158 264.672,111.492 264.5,110.5C 265.167,110.5 265.5,110.167 265.5,109.5C 266.167,109.5 266.5,109.167 266.5,108.5C 267.791,108.737 268.791,108.404 269.5,107.5C 270.167,107.5 270.833,107.5 271.5,107.5C 269.405,116.773 264.071,123.606 255.5,128C 260.363,128.809 265.03,128.142 269.5,126C 273.695,122.97 277.361,119.47 280.5,115.5C 280.5,116.5 280.5,117.5 280.5,118.5C 276.076,123.125 271.743,127.959 267.5,133C 265.182,134.993 262.516,136.159 259.5,136.5C 258.467,140.773 258.134,147.106 258.5,155.5C 257.671,148.345 257.171,141.011 257,133.5C 251.346,129.746 245.179,127.913 238.5,128C 231.098,129.688 224.098,132.355 217.5,136C 212.621,137.571 207.621,138.404 202.5,138.5C 185.187,134.843 167.853,131.176 150.5,127.5C 163.381,124.218 176.048,125.218 188.5,130.5C 189.696,130.154 189.696,129.654 188.5,129C 182.188,125.674 175.521,123.34 168.5,122C 158.167,121.333 147.833,121.333 137.5,122C 122.84,125.33 108.174,128.664 93.5,132C 85.8693,133.309 78.2026,133.642 70.5,133C 58.5976,132.299 48.7642,127.465 41,118.5C 40.5065,116.866 40.3398,115.199 40.5,113.5C 47.6647,114.503 50.498,111.503 49,104.5C 42.7729,100.248 41.9396,95.0811 46.5,89C 49.9884,88.1481 53.3217,86.9815 56.5,85.5C 57.0219,84.3926 57.3552,83.2259 57.5,82C 56.2411,79.4729 55.2411,76.8062 54.5,74C 56.7475,66.4342 61.4141,64.6009 68.5,68.5C 70.3829,68.1243 71.8829,67.1243 73,65.5C 74.2441,56.9088 74.9108,48.2421 75,39.5C 75.7247,38.9415 76.5581,38.6082 77.5,38.5C 85.677,43.8282 94.0103,48.9949 102.5,54C 115.725,59.0727 129.392,60.7394 143.5,59C 160.074,56.5156 176.741,55.0156 193.5,54.5C 234.821,53.6548 254.988,73.9881 254,115.5C 258.443,118.709 261.61,117.709 263.5,112.5 Z"/></g>
<g><path style="opacity:0.009" fill="#000000" d="M 205.5,43.5 C 199.167,42.1667 192.833,42.1667 186.5,43.5C 183.482,43.6646 180.482,43.498 177.5,43C 188.847,41.094 200.18,41.094 211.5,43C 209.527,43.4955 207.527,43.6621 205.5,43.5 Z"/></g>
<g><path style="opacity:0.008" fill="#000000" d="M 217.5,45.5 C 216.048,44.6981 214.382,44.1981 212.5,44C 215.594,43.3482 218.594,43.6815 221.5,45C 220.207,45.49 218.873,45.6567 217.5,45.5 Z"/></g>
<g><path style="opacity:0.02" fill="#dbc9ab" d="M 167.5,44.5 C 157.047,44.8934 146.38,45.2267 135.5,45.5C 146.003,43.8473 156.67,43.514 167.5,44.5 Z"/></g>
<g><path style="opacity:1" fill="#e3d2b4" d="M 162.5,46.5 C 153.452,48.8012 144.118,49.8012 134.5,49.5C 129.833,49.3333 125.167,49.1667 120.5,49C 119.263,48.7679 118.263,48.2679 117.5,47.5C 123.69,47.8229 129.69,47.4896 135.5,46.5C 144.568,46.2122 153.568,46.2122 162.5,46.5 Z"/></g>
<g><path style="opacity:0.008" fill="#000000" d="M 237.5,53.5 C 238.497,52.2875 239.497,52.4542 240.5,54C 239.906,54.4643 239.239,54.631 238.5,54.5C 237.833,54.5 237.5,54.1667 237.5,53.5 Z"/></g>
<g><path style="opacity:0.007" fill="#000000" d="M 241.5,56.5 C 242.497,55.2875 243.497,55.4542 244.5,57C 243.906,57.4643 243.239,57.631 242.5,57.5C 241.833,57.5 241.5,57.1667 241.5,56.5 Z"/></g>
<g><path style="opacity:0.008" fill="#000000" d="M 50.5,56.5 C 51.8333,57.1667 51.8333,57.1667 50.5,56.5 Z"/></g>
<g><path style="opacity:0.008" fill="#000000" d="M 48.5,60.5 C 47.8333,60.5 47.5,60.8333 47.5,61.5C 46.9569,61.44 46.6236,61.1067 46.5,60.5C 47.2565,59.2267 47.9232,59.2267 48.5,60.5 Z"/></g>
<g><path style="opacity:1" fill="#181614" d="M 102.5,67.5 C 102.917,66.8761 103.584,66.5427 104.5,66.5C 109.716,68.0883 115.049,68.755 120.5,68.5C 120.126,71.6202 118.293,72.9535 115,72.5C 110.299,72.0627 106.132,70.3961 102.5,67.5 Z"/></g>
<g><path style="opacity:0.008" fill="#000000" d="M 42.5,77.5 C 41.7611,77.631 41.0944,77.4643 40.5,77C 41.2883,73.9243 41.7883,70.7577 42,67.5C 42.4983,70.8168 42.665,74.1501 42.5,77.5 Z"/></g>
<g><path style="opacity:1" fill="#13110f" d="M 221.5,73.5 C 230.758,76.9239 237.258,83.2572 241,92.5C 240.39,97.4629 238.39,97.7963 235,93.5C 231.394,87.2934 227.061,81.6267 222,76.5C 221.517,75.552 221.351,74.552 221.5,73.5 Z"/></g>
<g><path style="opacity:0.007" fill="#000000" d="M 259.5,78.5 C 259.167,78.5 258.833,78.5 258.5,78.5C 258.672,77.5084 258.338,76.8417 257.5,76.5C 257.369,75.7611 257.536,75.0944 258,74.5C 259.188,75.5634 259.688,76.8967 259.5,78.5 Z"/></g>
<g><path style="opacity:0.006" fill="#000000" d="M 39.5,79.5 C 38.8333,79.5 38.5,79.8333 38.5,80.5C 36.0248,80.2533 36.0248,79.5866 38.5,78.5C 39.1067,78.6236 39.44,78.9569 39.5,79.5 Z"/></g>
<g><path style="opacity:1" fill="#110f0d" d="M 88.5,77.5 C 100.077,81.7837 112.077,83.617 124.5,83C 125.833,84.3333 125.833,85.6667 124.5,87C 112.07,91.1805 100.736,89.1805 90.5,81C 89.1772,80.1841 88.5106,79.0174 88.5,77.5 Z"/></g>
<g><path style="opacity:0.008" fill="#000000" d="M 259.5,78.5 C 261.461,80.32 261.794,82.32 260.5,84.5C 260.737,83.209 260.404,82.209 259.5,81.5C 259.5,80.5 259.5,79.5 259.5,78.5 Z"/></g>
<g><path style="opacity:0.01" fill="#000000" d="M 262.5,92.5 C 262.343,91.1266 262.51,89.7932 263,88.5C 263.765,90.0657 263.598,91.3991 262.5,92.5 Z"/></g>
<g><path style="opacity:0.015" fill="#000000" d="M 29.5,90.5 C 30.6408,93.6399 30.8075,96.9733 30,100.5C 29.5017,97.1832 29.335,93.8499 29.5,90.5 Z"/></g>
<g><path style="opacity:1" fill="#0c0b09" d="M 74.5,93.5 C 80.7036,95.4673 87.037,96.9673 93.5,98C 104.169,98.0781 114.836,98.0781 125.5,98C 126.833,99.6667 126.833,101.333 125.5,103C 123.044,104.711 120.377,106.044 117.5,107C 101.328,109.842 86.8279,106.342 74,96.5C 73.5304,95.4232 73.6971,94.4232 74.5,93.5 Z"/></g>
<g><path style="opacity:1" fill="#0f0d0b" d="M 214.5,98.5 C 225.725,101.391 233.058,108.391 236.5,119.5C 235.747,124.821 233.247,126.154 229,123.5C 228.202,120.107 227.202,116.774 226,113.5C 222.31,108.32 218.477,103.32 214.5,98.5 Z"/></g>
<g><path style="opacity:0.006" fill="#000000" d="M 274.5,104.5 C 273.833,104.5 273.5,104.833 273.5,105.5C 271.025,105.253 271.025,104.587 273.5,103.5C 274.107,103.624 274.44,103.957 274.5,104.5 Z"/></g>
<g><path style="opacity:0.948" fill="#080706" d="M 281.5,114.5 C 280.833,114.5 280.5,114.833 280.5,115.5C 277.361,119.47 273.695,122.97 269.5,126C 265.03,128.142 260.363,128.809 255.5,128C 264.071,123.606 269.405,116.773 271.5,107.5C 272.5,107.167 273.167,106.5 273.5,105.5C 274.167,105.5 274.5,105.167 274.5,104.5C 276.339,103.248 278.172,103.248 280,104.5C 281.199,107.726 281.699,111.059 281.5,114.5 Z"/></g>
<g><path style="opacity:0.006" fill="#bab1a4" d="M 269.5,107.5 C 268.209,107.263 267.209,107.596 266.5,108.5C 266.167,108.5 265.833,108.5 265.5,108.5C 265.588,105.394 266.922,105.06 269.5,107.5 Z"/></g>
<g><path style="opacity:0.006" fill="#000000" d="M 282.5,114.5 C 282.337,112.143 282.503,109.81 283,107.5C 283.796,110.039 283.629,112.372 282.5,114.5 Z"/></g>
<g><path style="opacity:1" fill="#151310" d="M 184.5,103.5 C 197.866,105.97 208.7,112.97 217,124.5C 219.543,128.256 218.71,130.089 214.5,130C 206.788,118.448 196.788,109.614 184.5,103.5 Z"/></g>
<g><path style="opacity:0.008" fill="#000000" d="M 286.5,120.5 C 285.833,119.167 285.833,119.167 286.5,120.5 Z"/></g>
<g><path style="opacity:0.008" fill="#000000" d="M 286.5,120.5 C 287.833,121.167 287.833,121.167 286.5,120.5 Z"/></g>
<g><path style="opacity:0.004" fill="#000000" d="M 287.5,125.5 C 287.351,124.448 287.517,123.448 288,122.5C 288.74,123.749 288.573,124.749 287.5,125.5 Z"/></g>
<g><path style="opacity:0.006" fill="#000000" d="M 286.5,125.5 C 286.833,125.5 287.167,125.5 287.5,125.5C 287.771,127.38 287.104,128.713 285.5,129.5C 285.5,128.833 285.5,128.167 285.5,127.5C 286.338,127.158 286.672,126.492 286.5,125.5 Z"/></g>
<g><path style="opacity:0.006" fill="#000000" d="M 32.5,126.5 C 33.1667,126.5 33.5,126.833 33.5,127.5C 33.2533,129.975 32.5866,129.975 31.5,127.5C 31.6236,126.893 31.9569,126.56 32.5,126.5 Z"/></g>
<g><path style="opacity:1" fill="#fdd9b3" d="M 150.5,127.5 C 167.853,131.176 185.187,134.843 202.5,138.5C 207.621,138.404 212.621,137.571 217.5,136C 224.098,132.355 231.098,129.688 238.5,128C 245.179,127.913 251.346,129.746 257,133.5C 257.171,141.011 257.671,148.345 258.5,155.5C 259.104,169.826 259.604,184.159 260,198.5C 262.165,222.481 263.998,246.481 265.5,270.5C 266.785,282.691 264.285,294.024 258,304.5C 251.001,287.086 238.501,275.753 220.5,270.5C 226.623,265.575 228.79,259.241 227,251.5C 223.664,243.408 218.164,240.741 210.5,243.5C 214.159,246.327 217.326,249.66 220,253.5C 221.5,262.667 217.667,266.5 208.5,265C 204.664,262.916 200.997,260.583 197.5,258C 195.097,257.37 193.263,258.203 192,260.5C 191.676,264.546 193.509,267.379 197.5,269C 168.009,271.893 146.842,286.393 134,312.5C 118.604,304.11 104.604,293.777 92,281.5C 84.6193,272.075 78.786,261.742 74.5,250.5C 73.8333,250.833 73.1667,251.167 72.5,251.5C 68.9475,248.556 64.9475,246.39 60.5,245C 55.8887,243.993 51.5554,244.66 47.5,247C 55.3333,250.833 61.1667,256.667 65,264.5C 67.3099,266.199 69.1433,268.199 70.5,270.5C 69.7574,276.137 69.2574,281.804 69,287.5C 64.8717,285.965 61.3717,286.965 58.5,290.5C 57.5224,290.023 56.6891,289.357 56,288.5C 55.6667,283.5 55.3333,278.5 55,273.5C 54.3333,272.167 53.6667,270.833 53,269.5C 49.5838,267.208 46.0838,265.041 42.5,263C 31.039,250.821 32.039,239.821 45.5,230C 55.2168,227.409 63.2168,229.909 69.5,237.5C 71.3904,237.703 72.8904,237.037 74,235.5C 75.9889,231.747 76.8222,227.747 76.5,223.5C 77.5023,212.661 81.0023,202.661 87,193.5C 94.4939,176.73 94.3272,160.063 86.5,143.5C 107.733,137.858 129.067,132.525 150.5,127.5 Z"/></g>
<g><path style="opacity:0.012" fill="#000000" d="M 284.5,129.5 C 284.833,129.5 285.167,129.5 285.5,129.5C 285.315,130.17 284.981,130.17 284.5,129.5 Z"/></g>
<g><path style="opacity:0.012" fill="#000000" d="M 283.5,130.5 C 283.833,130.5 284.167,130.5 284.5,130.5C 284.315,131.17 283.981,131.17 283.5,130.5 Z"/></g>
<g><path style="opacity:0.012" fill="#000000" d="M 282.5,131.5 C 282.833,131.5 283.167,131.5 283.5,131.5C 283.315,132.17 282.981,132.17 282.5,131.5 Z"/></g>
<g><path style="opacity:0.012" fill="#000000" d="M 281.5,132.5 C 281.833,132.5 282.167,132.5 282.5,132.5C 282.315,133.17 281.981,133.17 281.5,132.5 Z"/></g>
<g><path style="opacity:0.012" fill="#000000" d="M 280.5,133.5 C 280.833,133.5 281.167,133.5 281.5,133.5C 281.315,134.17 280.981,134.17 280.5,133.5 Z"/></g>
<g><path style="opacity:0.012" fill="#000000" d="M 43.5,136.5 C 42.8333,137.167 42.8333,137.167 43.5,136.5 Z"/></g>
<g><path style="opacity:0.012" fill="#000000" d="M 272.5,138.5 C 272.5,138.167 272.5,137.833 272.5,137.5C 275.167,137.833 275.167,138.167 272.5,138.5 Z"/></g>
<g><path style="opacity:0.008" fill="#000000" d="M 269.5,138.5 C 270.5,138.5 271.5,138.5 272.5,138.5C 271.5,139.833 270.5,139.833 269.5,138.5 Z"/></g>
<g><path style="opacity:0.011" fill="#000000" d="M 262.5,140.5 C 264.288,139.378 266.288,139.211 268.5,140C 266.527,140.495 264.527,140.662 262.5,140.5 Z"/></g>
<g><path style="opacity:1" fill="#e8d8bb" d="M 76.5,223.5 C 76.8222,227.747 75.9889,231.747 74,235.5C 72.8904,237.037 71.3904,237.703 69.5,237.5C 67.464,229.464 62.464,224.464 54.5,222.5C 47.587,195.167 47.9204,167.834 55.5,140.5C 64.7177,142.148 74.051,142.981 83.5,143C 87.3094,153.753 87.4761,164.586 84,175.5C 79.7304,183.43 75.0637,191.097 70,198.5C 64.5993,205.864 63.266,213.864 66,222.5C 69.1376,226.158 72.6376,226.491 76.5,223.5 Z"/></g>
<g><path style="opacity:0.009" fill="#000000" d="M 41.5,153.5 C 40.6618,153.842 40.3284,154.508 40.5,155.5C 39.2035,154.151 39.3702,152.818 41,151.5C 41.4643,152.094 41.631,152.761 41.5,153.5 Z"/></g>
<g><path style="opacity:0.008" fill="#000000" d="M 268.5,169.5 C 268.167,169.5 267.833,169.5 267.5,169.5C 267.795,167.265 267.461,165.265 266.5,163.5C 266.34,161.801 266.506,160.134 267,158.5C 268.108,162.086 268.608,165.753 268.5,169.5 Z"/></g>
<g><path style="opacity:0.009" fill="#000000" d="M 37.5,165.5 C 37.1667,165.5 36.8333,165.5 36.5,165.5C 36.8333,161.5 37.1667,161.5 37.5,165.5 Z"/></g>
<g><path style="opacity:0.013" fill="#000000" d="M 36.5,165.5 C 36.6495,166.552 36.4828,167.552 36,168.5C 35.2599,167.251 35.4265,166.251 36.5,165.5 Z"/></g>
<g><path style="opacity:0.012" fill="#000000" d="M 268.5,169.5 C 269.434,170.568 269.768,171.901 269.5,173.5C 268.566,172.432 268.232,171.099 268.5,169.5 Z"/></g>
<g><path style="opacity:0.007" fill="#000000" d="M 269.5,173.5 C 270.622,175.288 270.789,177.288 270,179.5C 269.505,177.527 269.338,175.527 269.5,173.5 Z"/></g>
<g><path style="opacity:0.013" fill="#000000" d="M 271.5,184.5 C 271.167,184.5 270.833,184.5 270.5,184.5C 270.833,179.167 271.167,179.167 271.5,184.5 Z"/></g>
<g><path style="opacity:1" fill="#0e0c0a" d="M 221.5,181.5 C 233.878,182.11 244.711,186.443 254,194.5C 255.903,196.441 256.736,198.774 256.5,201.5C 251.53,200.518 246.863,198.684 242.5,196C 235.612,193.861 228.612,192.195 221.5,191C 218.875,187.763 218.875,184.596 221.5,181.5 Z"/></g>
<g><path style="opacity:1" fill="#0d0b09" d="M 161.5,183.5 C 165.383,183.109 169.05,183.776 172.5,185.5C 175.598,189.249 174.931,192.082 170.5,194C 156.158,194.002 143.158,198.168 131.5,206.5C 131.167,206.167 130.833,205.833 130.5,205.5C 138.05,194.289 148.383,186.956 161.5,183.5 Z"/></g>
<g><path style="opacity:0.007" fill="#000000" d="M 271.5,184.5 C 272.613,185.946 272.78,187.613 272,189.5C 271.506,187.866 271.34,186.199 271.5,184.5 Z"/></g>
<g><path style="opacity:0.011" fill="#000000" d="M 273.5,195.5 C 273.167,195.5 272.833,195.5 272.5,195.5C 272.833,188.833 273.167,188.833 273.5,195.5 Z"/></g>
<g><path style="opacity:0.008" fill="#000000" d="M 273.5,195.5 C 274.629,197.628 274.796,199.961 274,202.5C 273.503,200.19 273.337,197.857 273.5,195.5 Z"/></g>
<g><path style="opacity:0.011" fill="#000000" d="M 275.5,210.5 C 275.167,210.5 274.833,210.5 274.5,210.5C 274.833,202.5 275.167,202.5 275.5,210.5 Z"/></g>
<g><path style="opacity:1" fill="#080706" d="M 155.5,209.5 C 161.74,208.908 164.407,211.741 163.5,218C 163.524,223.913 161.858,229.247 158.5,234C 151.106,234.234 148.439,230.567 150.5,223C 149.387,217.264 151.054,212.764 155.5,209.5 Z"/></g>
<g><path style="opacity:1" fill="#0d0b09" d="M 236.5,209.5 C 241.781,210.114 244.781,213.114 245.5,218.5C 244.954,222.686 243.787,226.686 242,230.5C 238.626,233.405 235.626,233.072 233,229.5C 228.738,221.655 229.905,214.988 236.5,209.5 Z"/></g>
<g><path style="opacity:0.01" fill="#000000" d="M 275.5,210.5 C 276.622,212.288 276.789,214.288 276,216.5C 275.505,214.527 275.338,212.527 275.5,210.5 Z"/></g>
<g><path style="opacity:0.008" fill="#000000" d="M 282.5,285.5 C 282.822,279.642 282.489,273.975 281.5,268.5C 281.336,265.813 281.503,263.146 282,260.5C 283.587,268.967 283.754,277.3 282.5,285.5 Z"/></g>
<g><path style="opacity:0.006" fill="#000000" d="M 30.5,269.5 C 31.1667,269.5 31.5,269.833 31.5,270.5C 32.1667,270.5 32.5,270.833 32.5,271.5C 32.1034,272.525 31.4368,272.692 30.5,272C 29.2264,271.023 29.2264,270.189 30.5,269.5 Z"/></g>
<g><path style="opacity:0.009" fill="#000000" d="M 40.5,277.5 C 40.5489,282.539 39.8823,282.705 38.5,278C 39.0944,277.536 39.7611,277.369 40.5,277.5 Z"/></g>
<g><path style="opacity:0.012" fill="#000000" d="M 281.5,285.5 C 281.833,285.5 282.167,285.5 282.5,285.5C 282.795,287.735 282.461,289.735 281.5,291.5C 281.5,289.5 281.5,287.5 281.5,285.5 Z"/></g>
<g><path style="opacity:0.008" fill="#000000" d="M 39.5,286.5 C 40.6129,287.946 40.7796,289.613 40,291.5C 39.5065,289.866 39.3398,288.199 39.5,286.5 Z"/></g>
<g><path style="opacity:0.007" fill="#000000" d="M 280.5,291.5 C 280.833,291.5 281.167,291.5 281.5,291.5C 281.784,293.415 281.451,295.081 280.5,296.5C 280.5,294.833 280.5,293.167 280.5,291.5 Z"/></g>
<g><path style="opacity:1" fill="#fad7b1" d="M 190.5,286.5 C 202.225,286.505 213.892,287.338 225.5,289C 239.8,294.633 246.967,305.133 247,320.5C 242.287,328.623 235.454,331.456 226.5,329C 223.465,325.63 220.132,322.63 216.5,320C 208.807,316.731 202.64,318.565 198,325.5C 195.955,328.423 193.788,331.257 191.5,334C 176.881,336.178 163.548,333.012 151.5,324.5C 149.481,317.847 150.647,311.847 155,306.5C 164.503,295.503 176.337,288.836 190.5,286.5 Z"/></g>
<g><path style="opacity:1" fill="#0b0907" d="M 223.5,291.5 C 225.818,291.818 227.152,293.152 227.5,295.5C 224.968,304.198 219.301,309.698 210.5,312C 197.45,314.472 187.784,309.972 181.5,298.5C 183.14,292.997 186.473,291.497 191.5,294C 198.171,303.31 206.504,304.976 216.5,299C 219.039,296.63 221.372,294.13 223.5,291.5 Z"/></g>
<g><path style="opacity:0.008" fill="#000000" d="M 279.5,296.5 C 279.833,296.5 280.167,296.5 280.5,296.5C 280.405,298.786 279.738,300.786 278.5,302.5C 278.5,301.167 278.5,299.833 278.5,298.5C 279.338,298.158 279.672,297.492 279.5,296.5 Z"/></g>
<g><path style="opacity:0.007" fill="#000000" d="M 44.5,297.5 C 45.1667,297.5 45.5,297.833 45.5,298.5C 45.2533,300.975 44.5866,300.975 43.5,298.5C 43.6236,297.893 43.9569,297.56 44.5,297.5 Z"/></g>
<g><path style="opacity:0.012" fill="#000000" d="M 69.5,301.5 C 69.8333,301.5 70.1667,301.5 70.5,301.5C 70.8693,303.993 70.2027,304.66 68.5,303.5C 68.5,303.167 68.5,302.833 68.5,302.5C 69.1667,302.5 69.5,302.167 69.5,301.5 Z"/></g>
<g><path style="opacity:0.012" fill="#000000" d="M 277.5,302.5 C 277.833,302.5 278.167,302.5 278.5,302.5C 278.672,303.492 278.338,304.158 277.5,304.5C 277.5,303.833 277.5,303.167 277.5,302.5 Z"/></g>
<g><path style="opacity:0.008" fill="#000000" d="M 66.5,304.5 C 66.5,304.167 66.5,303.833 66.5,303.5C 67.1667,303.5 67.8333,303.5 68.5,303.5C 68.1583,304.338 67.4916,304.672 66.5,304.5 Z"/></g>
<g><path style="opacity:0.01" fill="#000000" d="M 64.5,305.5 C 64.5,305.167 64.5,304.833 64.5,304.5C 65.1667,304.5 65.8333,304.5 66.5,304.5C 66.1583,305.338 65.4916,305.672 64.5,305.5 Z"/></g>
<g><path style="opacity:0.01" fill="#000000" d="M 276.5,304.5 C 276.833,304.5 277.167,304.5 277.5,304.5C 277.672,305.492 277.338,306.158 276.5,306.5C 276.5,305.833 276.5,305.167 276.5,304.5 Z"/></g>
<g><path style="opacity:0.007" fill="#000000" d="M 57.5,305.5 C 58.209,306.404 59.209,306.737 60.5,306.5C 58.274,307.559 55.9406,307.392 53.5,306C 54.7932,305.51 56.1266,305.343 57.5,305.5 Z"/></g>
<g><path style="opacity:0.012" fill="#000000" d="M 60.5,306.5 C 60.5,306.167 60.5,305.833 60.5,305.5C 61.8333,305.5 63.1667,305.5 64.5,305.5C 63.4324,306.434 62.099,306.768 60.5,306.5 Z"/></g>
<g><path style="opacity:0.007" fill="#000000" d="M 275.5,306.5 C 275.833,306.5 276.167,306.5 276.5,306.5C 276.771,308.38 276.104,309.713 274.5,310.5C 274.5,309.833 274.5,309.167 274.5,308.5C 275.338,308.158 275.672,307.492 275.5,306.5 Z"/></g>
<g><path style="opacity:0.007" fill="#000000" d="M 273.5,310.5 C 273.833,310.5 274.167,310.5 274.5,310.5C 274.771,312.38 274.104,313.713 272.5,314.5C 272.5,313.833 272.5,313.167 272.5,312.5C 273.338,312.158 273.672,311.492 273.5,310.5 Z"/></g>
<g><path style="opacity:0.01" fill="#000000" d="M 271.5,314.5 C 271.833,314.5 272.167,314.5 272.5,314.5C 272.672,315.492 272.338,316.158 271.5,316.5C 271.5,315.833 271.5,315.167 271.5,314.5 Z"/></g>
<g><path style="opacity:0.016" fill="#000000" d="M 270.5,316.5 C 270.833,316.5 271.167,316.5 271.5,316.5C 271.315,317.17 270.981,317.17 270.5,316.5 Z"/></g>
<g><path style="opacity:0.007" fill="#000000" d="M 79.5,317.5 C 80.1667,317.5 80.5,317.833 80.5,318.5C 80.2533,320.975 79.5866,320.975 78.5,318.5C 78.6236,317.893 78.9569,317.56 79.5,317.5 Z"/></g>
<g><path style="opacity:0.008" fill="#000000" d="M 269.5,317.5 C 269.833,317.5 270.167,317.5 270.5,317.5C 270.672,318.492 270.338,319.158 269.5,319.5C 269.5,318.833 269.5,318.167 269.5,317.5 Z"/></g>
<g><path style="opacity:0.008" fill="#000000" d="M 268.5,319.5 C 268.833,319.5 269.167,319.5 269.5,319.5C 269.672,320.492 269.338,321.158 268.5,321.5C 268.5,320.833 268.5,320.167 268.5,319.5 Z"/></g>
<g><path style="opacity:0.008" fill="#000000" d="M 267.5,321.5 C 267.833,321.5 268.167,321.5 268.5,321.5C 268.315,322.17 267.981,322.17 267.5,321.5 Z"/></g>
<g><path style="opacity:0.007" fill="#000000" d="M 83.5,322.5 C 84.1667,322.5 84.5,322.833 84.5,323.5C 84.2533,325.975 83.5866,325.975 82.5,323.5C 82.6236,322.893 82.9569,322.56 83.5,322.5 Z"/></g>
<g><path style="opacity:0.007" fill="#000000" d="M 266.5,322.5 C 266.833,322.5 267.167,322.5 267.5,322.5C 267.573,324.027 266.906,325.027 265.5,325.5C 265.5,324.833 265.5,324.167 265.5,323.5C 266.167,323.5 266.5,323.167 266.5,322.5 Z"/></g>
<g><path style="opacity:0.016" fill="#000000" d="M 264.5,325.5 C 264.833,325.5 265.167,325.5 265.5,325.5C 265.315,326.17 264.981,326.17 264.5,325.5 Z"/></g>
<g><path style="opacity:0.006" fill="#000000" d="M 263.5,326.5 C 263.833,326.5 264.167,326.5 264.5,326.5C 264.672,327.492 264.338,328.158 263.5,328.5C 263.5,327.833 263.5,327.167 263.5,326.5 Z"/></g>
<g><path style="opacity:0.009" fill="#000000" d="M 262.5,328.5 C 262.833,328.5 263.167,328.5 263.5,328.5C 263.737,329.791 263.404,330.791 262.5,331.5C 262.5,330.5 262.5,329.5 262.5,328.5 Z"/></g>
<g><path style="opacity:0.006" fill="#000000" d="M 91.5,331.5 C 92.1667,331.5 92.5,331.833 92.5,332.5C 93.1667,332.5 93.5,332.833 93.5,333.5C 92.7145,335.592 91.7145,335.259 90.5,332.5C 90.6236,331.893 90.9569,331.56 91.5,331.5 Z"/></g>
<g><path style="opacity:0.01" fill="#000000" d="M 262.5,331.5 C 262.649,332.552 262.483,333.552 262,334.5C 261.26,333.251 261.427,332.251 262.5,331.5 Z"/></g>
<g><path style="opacity:0.008" fill="#000000" d="M 259.5,337.5 C 260.222,337.082 260.722,336.416 261,335.5C 261.52,337.289 261.187,338.956 260,340.5C 259.517,339.552 259.351,338.552 259.5,337.5 Z"/></g>
<g><path style="opacity:0.016" fill="#000000" d="M 255.5,347.5 C 256.833,348.167 256.833,348.167 255.5,347.5 Z"/></g>
<g><path style="opacity:0.008" fill="#000000" d="M 254.5,348.5 C 254.833,348.5 255.167,348.5 255.5,348.5C 255.672,349.492 255.338,350.158 254.5,350.5C 254.5,349.833 254.5,349.167 254.5,348.5 Z"/></g>
<g><path style="opacity:0.008" fill="#000000" d="M 253.5,350.5 C 253.833,350.5 254.167,350.5 254.5,350.5C 254.672,351.492 254.338,352.158 253.5,352.5C 253.5,351.833 253.5,351.167 253.5,350.5 Z"/></g>
<g><path style="opacity:0.012" fill="#000000" d="M 252.5,352.5 C 252.833,352.5 253.167,352.5 253.5,352.5C 253.315,353.17 252.981,353.17 252.5,352.5 Z"/></g>
<g><path style="opacity:0.008" fill="#000000" d="M 251.5,353.5 C 251.833,353.5 252.167,353.5 252.5,353.5C 252.672,354.492 252.338,355.158 251.5,355.5C 251.5,354.833 251.5,354.167 251.5,353.5 Z"/></g>
<g><path style="opacity:0.012" fill="#000000" d="M 250.5,355.5 C 250.833,355.5 251.167,355.5 251.5,355.5C 251.315,356.17 250.981,356.17 250.5,355.5 Z"/></g>
<g><path style="opacity:0.008" fill="#000000" d="M 249.5,356.5 C 249.833,356.5 250.167,356.5 250.5,356.5C 250.672,357.492 250.338,358.158 249.5,358.5C 249.5,357.833 249.5,357.167 249.5,356.5 Z"/></g>
<g><path style="opacity:0.008" fill="#000000" d="M 124.5,357.5 C 124.842,358.338 125.508,358.672 126.5,358.5C 126.5,358.833 126.5,359.167 126.5,359.5C 124.897,359.688 123.563,359.188 122.5,358C 123.094,357.536 123.761,357.369 124.5,357.5 Z"/></g>
<g><path style="opacity:0.012" fill="#000000" d="M 248.5,358.5 C 248.833,358.5 249.167,358.5 249.5,358.5C 249.315,359.17 248.981,359.17 248.5,358.5 Z"/></g>
<g><path style="opacity:0.01" fill="#000000" d="M 126.5,359.5 C 127.167,359.5 127.833,359.5 128.5,359.5C 128.5,359.833 128.5,360.167 128.5,360.5C 127.508,360.672 126.842,360.338 126.5,359.5 Z"/></g>
<g><path style="opacity:0.016" fill="#000000" d="M 247.5,359.5 C 247.833,359.5 248.167,359.5 248.5,359.5C 248.315,360.17 247.981,360.17 247.5,359.5 Z"/></g>
<g><path style="opacity:0.008" fill="#000000" d="M 128.5,360.5 C 129.239,360.369 129.906,360.536 130.5,361C 129.563,361.692 128.897,361.525 128.5,360.5 Z"/></g>
<g><path style="opacity:0.012" fill="#000000" d="M 243.5,364.5 C 244.833,365.167 244.833,365.167 243.5,364.5 Z"/></g>
<g><path style="opacity:0.012" fill="#000000" d="M 242.5,365.5 C 242.833,365.5 243.167,365.5 243.5,365.5C 243.315,366.17 242.981,366.17 242.5,365.5 Z"/></g>
<g><path style="opacity:0.006" fill="#000000" d="M 238.5,368.5 C 240.793,369.301 240.46,369.968 237.5,370.5C 237.5,370.167 237.5,369.833 237.5,369.5C 238.167,369.5 238.5,369.167 238.5,368.5 Z"/></g>
<g><path style="opacity:0.007" fill="#000000" d="M 153.5,370.5 C 154.167,370.5 154.5,370.833 154.5,371.5C 153.503,372.713 152.503,372.546 151.5,371C 152.094,370.536 152.761,370.369 153.5,370.5 Z"/></g>
<g><path style="opacity:0.012" fill="#000000" d="M 236.5,370.5 C 236.833,370.5 237.167,370.5 237.5,370.5C 237.315,371.17 236.981,371.17 236.5,370.5 Z"/></g>
<g><path style="opacity:0.008" fill="#000000" d="M 234.5,372.5 C 234.5,372.167 234.5,371.833 234.5,371.5C 235.167,371.5 235.833,371.5 236.5,371.5C 236.158,372.338 235.492,372.672 234.5,372.5 Z"/></g>
<g><path style="opacity:0.012" fill="#000000" d="M 233.5,372.5 C 233.833,372.5 234.167,372.5 234.5,372.5C 234.315,373.17 233.981,373.17 233.5,372.5 Z"/></g>
<g><path style="opacity:0.01" fill="#000000" d="M 158.5,373.5 C 158.103,374.525 157.437,374.692 156.5,374C 157.094,373.536 157.761,373.369 158.5,373.5 Z"/></g>
<g><path style="opacity:0.008" fill="#000000" d="M 231.5,374.5 C 231.5,374.167 231.5,373.833 231.5,373.5C 232.167,373.5 232.833,373.5 233.5,373.5C 233.158,374.338 232.492,374.672 231.5,374.5 Z"/></g>
<g><path style="opacity:0.01" fill="#000000" d="M 229.5,375.5 C 229.5,375.167 229.5,374.833 229.5,374.5C 230.167,374.5 230.833,374.5 231.5,374.5C 231.158,375.338 230.492,375.672 229.5,375.5 Z"/></g>
<g><path style="opacity:0.01" fill="#000000" d="M 227.5,376.5 C 227.5,376.167 227.5,375.833 227.5,375.5C 228.167,375.5 228.833,375.5 229.5,375.5C 229.158,376.338 228.492,376.672 227.5,376.5 Z"/></g>
<g><path style="opacity:0.007" fill="#000000" d="M 167.5,376.5 C 168.209,377.404 169.209,377.737 170.5,377.5C 172.607,378.468 174.941,378.802 177.5,378.5C 177.5,378.833 177.5,379.167 177.5,379.5C 172.629,379.808 167.963,378.975 163.5,377C 164.793,376.51 166.127,376.343 167.5,376.5 Z"/></g>
<g><path style="opacity:0.008" fill="#000000" d="M 224.5,377.5 C 224.5,377.167 224.5,376.833 224.5,376.5C 225.5,376.5 226.5,376.5 227.5,376.5C 226.791,377.404 225.791,377.737 224.5,377.5 Z"/></g>
<g><path style="opacity:0.011" fill="#000000" d="M 220.5,378.5 C 220.5,378.167 220.5,377.833 220.5,377.5C 221.833,377.5 223.167,377.5 224.5,377.5C 223.432,378.434 222.099,378.768 220.5,378.5 Z"/></g>
<g><path style="opacity:0.008" fill="#000000" d="M 190.5,379.5 C 190.5,379.167 190.5,378.833 190.5,378.5C 200.5,378.5 210.5,378.5 220.5,378.5C 210.681,379.494 200.681,379.827 190.5,379.5 Z"/></g>
<g><path style="opacity:0.009" fill="#000000" d="M 177.5,379.5 C 181.833,379.5 186.167,379.5 190.5,379.5C 186.167,380.833 181.833,380.833 177.5,379.5 Z"/></g>
</svg>
