<?xml version="1.0" standalone="no"?>
<!DOCTYPE svg PUBLIC "-//W3C//DTD SVG 20010904//EN"
 "http://www.w3.org/TR/2001/REC-SVG-20010904/DTD/svg10.dtd">
<svg version="1.0" xmlns="http://www.w3.org/2000/svg"
 width="500.000000pt" height="500.000000pt" viewBox="0 0 500.000000 500.000000"
 preserveAspectRatio="xMidYMid meet">
<metadata>
Created by potrace 1.14, written by Peter Selinger 2001-2017
</metadata>
<g transform="translate(0.000000,500.000000) scale(0.100000,-0.100000)"
fill="#000000" stroke="none">
<path d="M2349 4768 c-483 -19 -885 -138 -1210 -357 -449 -302 -707 -761 -801
-1421 -9 -64 -13 -202 -13 -420 0 -291 2 -341 24 -479 58 -382 162 -668 342
-936 83 -124 243 -296 364 -391 281 -219 623 -352 1038 -403 233 -29 367 -34
582 -22 729 40 1394 289 1804 676 l71 67 0 794 0 794 -940 0 -940 0 0 -335 0
-335 525 0 525 0 0 -300 0 -300 -66 -48 c-174 -128 -472 -237 -778 -284 -187
-28 -474 -30 -621 -4 -506 91 -842 425 -968 961 -46 195 -52 263 -51 560 0
302 13 416 68 607 124 427 408 720 792 818 202 52 487 66 684 35 296 -48 555
-196 709 -403 42 -58 119 -191 132 -230 3 -9 119 23 417 113 227 69 414 125
417 125 16 0 -115 266 -177 361 -210 318 -518 537 -927 658 -95 28 -306 70
-442 86 -110 13 -387 20 -560 13z"/>
</g>
</svg>
